<?xml version="1.0" encoding="UTF-8" standalone="no"?>
<!-- Code Generated SVG -->
<svg xmlns="http://www.w3.org/2000/svg" height="65" width="780" version="1.1">
 <g transform="matrix(.92424 0 0 .92424 2 2)">
  <g id="layer1" xmlns:inkscape="http://www.inkscape.org/namespaces/inkscape" transform="translate(-861.52 -693.41)" xmlns:sodipodi="http://sodipodi.sourceforge.net/DTD/sodipodi-0.dtd">
   <path id="path4898" d="m42.931 24.331a30.557 30.557 0 1 1 -61.114 0 30.557 30.557 0 1 1 61.114 0z" transform="translate(881.98 702.25)" fill="#fff"/>
   <g id="g12" transform="matrix(.31734 0 0 -.31734 753.01 932.23)">
    <g id="g14" clip-path="url(#clipPath16)">
     <g id="g20" transform="translate(506.02 648.59)">
      <path id="path22" d="m0 0c0-33.18-26.898-60.074-60.078-60.074-33.177 0-60.075 26.894-60.075 60.074s26.898 60.076 60.075 60.076c33.179 0 60.075-36.292 60.075-60.076" fill="#9a4055"/>
     </g>
     <g id="g24" transform="translate(445.95 569.43)">
      <path id="path26" d="m0 0c-43.719 0-79.158 35.441-79.158 79.16s35.439 79.159 79.158 79.159c43.721 0 79.161-35.44 79.161-79.159 0-43.72-35.44-79.161-79.161-79.161m0 180c-55.69 0-100.84-45.146-100.84-100.84 0-55.691 45.147-100.84 100.84-100.84s100.84 45.149 100.84 100.84c0 46.297-45.147 100.84-100.84 100.84" fill="#9a4055"/>
     </g>
    </g>
   </g>
   <path id="path3374" d="m876.68 728.85h2.1518v-5.5231l0.24388-0.98984-0.74597 0.86073-1.4059 0.91812-0.80336-1.1763 3.5147-2.6252h1.1333v8.5356h2.1088v1.6784h-6.1973v-1.6784" fill="#fff"/>
   <path id="path3376" d="m884.21 725.49c0-1.7119 0.32517-3.0078 0.9755-3.8877 0.6599-0.87986 1.6019-1.3198 2.8261-1.3198 1.3102 0.00001 2.2714 0.43516 2.8835 1.3054 0.62164 0.86075 0.93246 2.1614 0.93247 3.902-0.00001 1.7024-0.32996 3.003-0.98985 3.902-0.65991 0.88943-1.6019 1.3342-2.8261 1.3342-0.65034 0-1.2146-0.11955-1.6928-0.35864-0.47819-0.24866-0.87509-0.59774-1.1907-1.0472-0.30604-0.45906-0.53557-1.009-0.68859-1.6498-0.15302-0.65033-0.22953-1.3772-0.22953-2.1805m2.0658 0c0 1.0998 0.13389 1.9701 0.40168 2.6109 0.26778 0.63121 0.71249 0.94681 1.3341 0.94681 0.6312 0 1.0807-0.28691 1.3485-0.86074 0.26778-0.57382 0.40167-1.4728 0.40168-2.697-0.00001-0.54512-0.0335-1.0329-0.10042-1.4632-0.0574-0.43993-0.15303-0.81291-0.28691-1.119-0.1339-0.30603-0.31561-0.54034-0.54514-0.70293-0.21997-0.16258-0.49254-0.24387-0.8177-0.24388-0.62165 0.00001-1.0664 0.30127-1.3341 0.90377-0.26779 0.59296-0.40168 1.468-0.40168 2.6252" fill="#fff"/>
   <path id="path3378" d="m892.69 725.49c0-1.7119 0.32517-3.0078 0.9755-3.8877 0.6599-0.87986 1.6019-1.3198 2.8261-1.3198 1.3102 0.00001 2.2714 0.43516 2.8835 1.3054 0.62164 0.86075 0.93246 2.1614 0.93247 3.902-0.00001 1.7024-0.32996 3.003-0.98985 3.902-0.6599 0.88943-1.6019 1.3342-2.8261 1.3342-0.65034 0-1.2146-0.11955-1.6928-0.35864-0.47819-0.24866-0.87509-0.59774-1.1907-1.0472-0.30604-0.45906-0.53557-1.009-0.68859-1.6498-0.15302-0.65033-0.22953-1.3772-0.22953-2.1805m2.0658 0c0 1.0998 0.13389 1.9701 0.40168 2.6109 0.26778 0.63121 0.7125 0.94681 1.3341 0.94681 0.63121 0 1.0807-0.28691 1.3485-0.86074 0.26778-0.57382 0.40167-1.4728 0.40168-2.697-0.00001-0.54512-0.0335-1.0329-0.10042-1.4632-0.0574-0.43993-0.15303-0.81291-0.28691-1.119-0.1339-0.30603-0.31561-0.54034-0.54514-0.70293-0.21997-0.16258-0.49253-0.24387-0.8177-0.24388-0.62164 0.00001-1.0664 0.30127-1.3341 0.90377-0.26779 0.59296-0.40168 1.468-0.40168 2.6252" fill="#fff"/>
   <path id="path3380" d="m901.49 722.75c0-0.43036 0.067-0.79856 0.20084-1.1046 0.13389-0.30603 0.32039-0.55469 0.55948-0.74598 0.24866-0.20082 0.53557-0.34906 0.86074-0.44471 0.33473-0.0956 0.70293-0.14345 1.1046-0.14346 0.39211 0.00001 0.75553 0.043 1.0903 0.12911 0.33473 0.0861 0.62164 0.22954 0.86074 0.43037 0.24865 0.19129 0.43992 0.44473 0.57382 0.76032 0.13389 0.30605 0.20083 0.67904 0.20084 1.119-0.00001 0.4495-0.0669 0.82727-0.20084 1.1333-0.1339 0.30605-0.32517 0.55949-0.57382 0.76032-0.2391 0.19128-0.52601 0.32996-0.86074 0.41603-0.33474 0.0861-0.69816 0.12911-1.0903 0.12911-0.40168 0-0.76988-0.043-1.1046-0.12911-0.32517-0.0861-0.61208-0.22475-0.86074-0.41603-0.23909-0.20083-0.42559-0.45427-0.55948-0.76032-0.13389-0.30603-0.20084-0.6838-0.20084-1.1333m1.8219 0c-0.00001 0.37299 0.0669 0.66469 0.20084 0.87508 0.13389 0.21041 0.3682 0.31561 0.70293 0.31561 0.32517 0 0.5547-0.0908 0.68859-0.27257 0.13389-0.1817 0.20084-0.48774 0.20084-0.91812 0-0.43036-0.067-0.7364-0.20084-0.91812-0.13389-0.1817-0.36342-0.27256-0.68859-0.27257-0.32517 0.00001-0.55948 0.0909-0.70293 0.27257-0.1339 0.18172-0.20085 0.48776-0.20084 0.91812m4.5045 5.3366c0-0.43036 0.0669-0.79857 0.20084-1.1046 0.13389-0.30604 0.32038-0.55469 0.55948-0.74597 0.24865-0.20084 0.53556-0.34908 0.86074-0.44472 0.33472-0.0956 0.70293-0.14345 1.1046-0.14345 0.39211 0 0.75553 0.043 1.0903 0.12911 0.33472 0.0861 0.62163 0.22953 0.86074 0.43037 0.24864 0.19127 0.43992 0.44471 0.57382 0.76031 0.13388 0.30605 0.20083 0.67903 0.20084 1.119-0.00001 0.4495-0.067 0.82727-0.20084 1.1333-0.1339 0.30604-0.32518 0.55948-0.57382 0.76031-0.23911 0.19128-0.52602 0.32995-0.86074 0.41603-0.33474 0.0861-0.69816 0.12911-1.0903 0.12911-0.40168 0-0.76989-0.043-1.1046-0.12911-0.32518-0.0861-0.61209-0.22475-0.86074-0.41603-0.2391-0.20083-0.42559-0.45427-0.55948-0.76031-0.1339-0.30604-0.20084-0.68381-0.20084-1.1333m1.8219 0c-0.00001 0.37299 0.0669 0.66468 0.20084 0.87509 0.13388 0.2104 0.36819 0.3156 0.70293 0.3156 0.32516 0 0.55469-0.0909 0.68859-0.27257 0.13388-0.18171 0.20083-0.48775 0.20084-0.91812-0.00001-0.43036-0.067-0.7364-0.20084-0.91812-0.1339-0.18171-0.36343-0.27256-0.68859-0.27256-0.32517 0-0.55949 0.0909-0.70293 0.27256-0.1339 0.18172-0.20085 0.48776-0.20084 0.91812m1.5924-7.8614 1.1333 1.1046-8.966 9.3964-1.0903-1.1046 8.923-9.3964" fill="#fff"/>
  </g>
 </g>
 <g transform="matrix(.92424 0 0 .92371 67 2)">
  <g id="layer1" xmlns:inkscape="http://www.inkscape.org/namespaces/inkscape" transform="translate(-241.18 -600.23)">
   <g id="g3743" transform="matrix(.24092 0 0 .24092 183.83 504.99)">
    <g id="g6856" transform="matrix(1.25 0 0 -1.25 243 548.34)">
     <path id="path6858" d="m0 0c7.058-58.287 60.032-99.814 118.32-92.755 58.285 7.059 99.815 60.034 92.757 118.32-7.06 58.289-60.038 99.818-118.32 92.758-48.459-5.87-99.822-60.032-92.76-118.32" fill="#aada67"/>
    </g>
    <text id="text6860" font-size="15px" transform="rotate(56.451)" y="103.70833" x="638.02905">
     <tspan id="tspan6862" font-weight="bold" font-size="30.016px" y="103.70833" x="638.02905" font-family="PT Sans Caption" fill="#ffffff">M</tspan>
    </text>
    <text id="text6864" font-size="15px" transform="rotate(44.389)" y="240.16045" x="630.52197">
     <tspan id="tspan6866" font-weight="bold" font-size="30.016px" y="240.16045" x="630.52197" font-family="PT Sans Caption" fill="#ffffff">A</tspan>
    </text>
    <text id="text6868" font-size="15px" transform="rotate(33.614)" y="357.7814" x="596.34998">
     <tspan id="tspan6870" font-weight="bold" font-size="30.016px" y="357.7814" x="596.34998" font-family="PT Sans Caption" fill="#ffffff">D</tspan>
    </text>
    <text id="text6872" font-size="15px" transform="matrix(.91608 .40099 -.40099 .91608 0 0)" y="459.32925" x="548.40875">
     <tspan id="tspan6874" font-weight="bold" font-size="30.016px" y="459.32925" x="548.40875" font-family="PT Sans Caption" fill="#ffffff">E</tspan>
    </text>
    <text id="text6876" font-size="15px" transform="rotate(11.868)" y="565.86835" x="470.68747">
     <tspan id="tspan6878" font-weight="bold" font-size="30.016px" y="565.86835" x="470.68747" font-family="PT Sans Caption" fill="#ffffff">I</tspan>
    </text>
    <text id="text6880" font-size="15px" transform="rotate(3.2349)" y="632.37091" x="393.83673">
     <tspan id="tspan6882" font-weight="bold" font-size="30.016px" y="632.37091" x="393.83673" font-family="PT Sans Caption" fill="#ffffff">N</tspan>
    </text>
    <text id="text6884" font-size="15px" transform="rotate(-11.147)" y="716.84418" x="256.67117">
     <tspan id="tspan6886" font-weight="bold" font-size="30.016px" y="716.84418" x="256.67117" font-family="PT Sans Caption" fill="#ffffff">F</tspan>
    </text>
    <text id="text6888" font-size="15px" transform="rotate(-20.667)" y="752.45673" x="153.0231">
     <tspan id="tspan6890" font-weight="bold" font-size="30.016px" y="752.45673" x="153.0231" font-family="PT Sans Caption" fill="#ffffff">R</tspan>
    </text>
    <text id="text6892" font-size="15px" transform="rotate(-30.199)" y="770.72729" x="46.509098">
     <tspan id="tspan6894" font-weight="bold" font-size="30.016px" y="770.72729" x="46.509098" font-family="PT Sans Caption" fill="#ffffff">A</tspan>
    </text>
    <text id="text6896" font-size="15px" transform="matrix(.75496 -.65577 .65577 .75496 0 0)" y="769.83832" x="-76.602699">
     <tspan id="tspan6898" font-weight="bold" font-size="30.016px" y="769.83832" x="-76.602699" font-family="PT Sans Caption" fill="#ffffff">N</tspan>
    </text>
    <text id="text6900" font-size="15px" transform="matrix(.62326 -.78201 .78201 .62326 0 0)" y="747.06909" x="-191.77017">
     <tspan id="tspan6902" font-weight="bold" font-size="30.016px" y="747.06909" x="-191.77017" font-family="PT Sans Caption" fill="#ffffff">C</tspan>
    </text>
    <text id="text6904" font-size="15px" transform="rotate(-60.714)" y="709.48389" x="-289.49884">
     <tspan id="tspan6906" font-weight="bold" font-size="30.016px" y="709.48389" x="-289.49884" font-family="PT Sans Caption" fill="#ffffff">E</tspan>
    </text>
    <g id="g6908" transform="matrix(1.25 0 0 -1.25 -5325.9 12715)">
     <g id="g6910" clip-path="url(#clipPath6912)">
      <g id="g6916" transform="translate(4628.7 9754.4)">
       <path id="path6918" d="m0 0c4.549-37.548-22.203-71.671-59.748-76.218-37.548-4.548-71.672 22.202-76.22 59.748-4.548 37.548 22.202 71.672 59.751 76.22 37.547 4.548 71.672-22.202 76.219-59.75" fill="#fff"/>
      </g>
      <g id="g6920" transform="translate(4558.1 9677.9)">
       <path id="path6922" d="m0 0c6.669 9.419 4.438 22.463-4.98 29.134-9.421 6.671-22.466 4.441-29.137-4.981l-0.03-0.018c-4.704-6.206-13.552-7.424-19.758-2.72-6.207 4.706-7.424 13.553-2.719 19.759l-0.002 0.026c11.088 15.659 32.772 19.365 48.432 8.278 15.659-11.088 19.366-32.771 8.279-48.429l-0.085-1.049z" fill="#4176a4"/>
      </g>
      <g id="g6924" transform="translate(4558.1 9679.2)">
       <path id="path6926" d="m0 0c3.698 5.222 2.463 12.452-2.761 16.151-5.221 3.697-12.452 2.46-16.149-2.76l-0.018-0.013c-2.607-3.44-7.511-4.114-10.953-1.507-3.439 2.608-4.113 7.513-1.506 10.953v0.014c6.147 8.681 18.165 10.737 26.846 4.59 8.68-6.148 10.734-18.166 4.589-26.847l-0.048-0.581z" fill="#4176a4"/>
      </g>
      <g id="g6928" transform="translate(4555.5 9695.4)">
       <path id="path6930" d="m0 0h0.092c10.812 22.209 4.281 49.615-16.537 64.355-23.155 16.396-55.215 10.916-71.61-12.24l0.002-0.037c-6.957-9.178-5.158-22.257 4.02-29.216 9.178-6.955 22.258-5.155 29.214 4.022l0.047 0.028c9.862 13.929 29.149 17.227 43.079 7.364 11.166-7.908 15.498-21.87 11.693-34.276" fill="#4176a4"/>
      </g>
      <g id="g6932" transform="translate(4583.8 9772.6)">
       <path id="path6934" d="m0 0-0.397 1.501c-1.153-2.135-2.207-3.939-2.97-5.205v-5.112c0-1.492 5.411 3.276 4.573 4.027-0.837 0.748-1.884 1.5-1.884 1.5s2.848 0.174 2.052 1.153c-0.796 0.983-1.374 2.136-1.374 2.136" fill="#4176a4"/>
      </g>
      <g id="g6936" transform="translate(4569.9 9808.5)">
       <path id="path6938" d="m0 0 0.584 2.589s1.963 4.611 4.665 8.531c2.7 3.92-6.966 4.61-6.966 4.61s3.554 2.999 6.395 5.997c2.843 2.999-15.525 22.044-15.525 16.087v-45.185c0.398 5.783 3.984 7.475 10.847 7.371" fill="#4176a4"/>
      </g>
      <g id="g6940" transform="translate(4583.5 9679.4)">
       <path id="path6942" d="m0 0c-1.954 1.116-4.466 0.94-6.843 0.25 0.182-0.068 0.361-0.15 0.534-0.25 2.803-1.601 4.568-3.878 5.392-5.572 0.996-0.863 2.203-1.826 3.104-2.286 1.841-0.939 2.697-0.302 3.546 0 0.852 0.304-0.889 5.09-5.733 7.858" fill="#4176a4"/>
      </g>
      <g id="g6944" transform="translate(4562.4 9671.2)">
       <path id="path6946" d="m0 0c1.038 1.285 9.341 10.625 14.184 7.856 4.841-2.764 6.585-7.552 5.734-7.856-0.849-0.304-1.706-0.938-3.548 0s-4.955 3.976-4.955 3.976l-7.512-3.976h-3.903z" fill="#4176a4"/>
      </g>
      <g id="g6948" transform="translate(4578.3 9764.1)">
       <path id="path6950" d="m0 0c0.188 1.221 0.894 3.408 1.661 5.563 3.244 5.234 18.824 31.575 7.182 36.724l0.008 0.004-0.022 0.003c-0.792 0.35-29.062 5.13-29.062 5.13l0.031-10.349c-0.039-0.687-0.039-1.424 0.008-2.225v-0.017-25.354-102.43c11.197 9.87 41.303 54.659 41.303 68.391 0 22.683-22.512 15.429-21.109 24.559" fill="#be8d5e"/>
      </g>
      <g id="g6952" transform="translate(4590.4 9787.8)">
       <path id="path6954" d="m0 0c-0.911-2.433-1.985-4.852-3.078-7.104l9.269 0.915-6.191 6.189z" fill="#be8d5e"/>
      </g>
      <g id="g6956" transform="translate(4586.4 9792)">
       <path id="path6958" d="m0 0c0-3.836-3.11-6.945-6.945-6.945s-6.945 3.109-6.945 6.945c0 3.834 3.11 6.942 6.945 6.942s6.945-3.108 6.945-6.942" fill="#fff"/>
      </g>
      <g id="g6960" transform="translate(4585.4 9790)">
       <path id="path6962" d="m0 0c0-0.561-0.454-1.018-1.015-1.018-0.563 0-1.017 0.457-1.017 1.018 0 0.563 0.454 1.018 1.017 1.018 0.561 0 1.015-0.455 1.015-1.018" fill="#be8d5e"/>
      </g>
      <g id="g6964" transform="translate(4585.2 9789.5)">
       <path id="path6966" d="m0 0c0-0.134-0.109-0.242-0.244-0.242-0.133 0-0.242 0.108-0.242 0.242 0 0.135 0.109 0.243 0.242 0.243 0.135 0 0.244-0.108 0.244-0.243" fill="#be8d5e"/>
      </g>
      <g id="g6968" transform="translate(4586.4 9779.7)">
       <path id="path6970" d="m0 0c-0.57-1.155-1.141-2.257-1.691-3.288l11.259 4.237-9.568-0.949z" fill="#be8d5e"/>
      </g>
      <g id="g6972" transform="translate(4583.6 9807.2)">
       <path id="path6974" d="m0 0c0.092-0.012 0.182-0.028 0.27-0.041 0.89 0.996 2.27 2.488 2.968 2.968 1.075 0.745 2.476-1.359 2.476-1.359s-0.929 2.78-2.476 2.78c-1.074 0-3.523-2.554-4.931-4.126 0.555-0.074 1.119-0.149 1.693-0.222" fill="#be8d5e"/>
      </g>
      <g id="g6976" transform="translate(4581.3 9807.5)">
       <path id="path6978" d="m0 0c0.359 0.919 0.961 2.442 1.945 4.905-1.459-2.376-3.25-4.092-3.875-4.654 0.629-0.08 1.275-0.164 1.93-0.251" fill="#be8d5e"/>
      </g>
     </g>
    </g>
   </g>
  </g>
 </g>
 <g transform="matrix(.92424 0 0 .92424 132 2)">
  <g id="layer1" xmlns:inkscape="http://www.inkscape.org/namespaces/inkscape" transform="translate(-803.25 -334.54)" xmlns:sodipodi="http://sodipodi.sourceforge.net/DTD/sodipodi-0.dtd">
   <path id="path4898" d="m42.931 24.331c0 16.876-13.681 30.557-30.557 30.557s-30.557-13.681-30.557-30.557 13.681-30.557 30.557-30.557 30.557 13.681 30.557 30.557z" transform="translate(824.09 343.35)" fill="#fff"/>
   <g id="g6748" transform="matrix(0.301 0 0 -0.301 836.25 392.66)">
    <path id="path6750" d="m0 0c-46.09 0-83.453 37.364-83.453 83.454 0 46.092 37.363 83.456 83.453 83.456 46.092 0 83.458-37.364 83.458-83.456 0-46.09-37.366-83.454-83.458-83.454m0 189.76c-58.711 0-106.31-47.595-106.31-106.31 0-58.712 47.598-106.31 106.31-106.31 58.716 0 106.31 47.598 106.31 106.31 0 48.809-47.595 106.31-106.31 106.31" fill="#4176a4"/>
   </g>
   <path id="path4605" d="m814.23 359.27c0.72062-0.12809 1.5213-0.22418 2.4021-0.28825 0.88076-0.0801 1.7615-0.12009 2.6423-0.12011 0.89678 0.00002 1.8016 0.0721 2.7144 0.21619 0.91279 0.12813 1.7295 0.40037 2.4501 0.81672 0.73663 0.40036 1.3372 0.96885 1.8016 1.7055 0.46439 0.72064 0.69659 1.6815 0.6966 2.8825-0.00001 1.0569-0.20019 1.9617-0.60052 2.7144-0.40036 0.73665-0.93683 1.3372-1.6094 1.8016-0.65659 0.46441-1.4092 0.80871-2.258 1.0329-0.84875 0.20819-1.7215 0.31228-2.6183 0.31227-0.0801 0.00001-0.2162 0.00001-0.40836 0-0.19217 0.00001-0.40035 0.00001-0.62454 0-0.20819-0.016-0.40836-0.032-0.60053-0.048s-0.33629-0.032-0.43237-0.048v5.6689h-3.5551v-16.647m5.2846 2.7144c-0.3363 0.00001-0.66458 0.008-0.98485 0.024-0.30428 0.016-0.55249 0.048-0.74465 0.0961v4.9964c0.0641 0.016 0.16814 0.032 0.31227 0.048 0.14412 0.016 0.29625 0.032 0.4564 0.048 0.16013 0.00001 0.30426 0.008 0.43237 0.024 0.14412 0.00001 0.25622 0.00001 0.3363 0 0.46439 0.00001 0.9288-0.032 1.3932-0.0961s0.87275-0.20017 1.2251-0.40836c0.36831-0.20817 0.66457-0.48842 0.88877-0.84073 0.22419-0.36831 0.33629-0.85674 0.3363-1.4653-0.00001-0.51243-0.10411-0.92079-0.31228-1.2251-0.20819-0.32026-0.48843-0.56848-0.84073-0.74465-0.3363-0.17614-0.72864-0.29624-1.177-0.36031-0.43239-0.064-0.87277-0.0961-1.3212-0.0961" fill="#aada67"/>
   <path id="path4607" d="m839.04 359.11h3.3629v10.785c-0.00001 1.089-0.16015 2.0338-0.48042 2.8345-0.30428 0.8007-0.74466 1.4573-1.3212 1.9697-0.5605 0.51245-1.2411 0.89678-2.0418 1.153-0.78469 0.24021-1.6494 0.36031-2.5943 0.36031-2.258 0-3.9795-0.48843-5.1645-1.4653-1.185-0.99286-1.7776-2.4742-1.7776-4.4439v-11.194h3.5551v10.545c-0.00001 1.2811 0.28024 2.1779 0.84073 2.6904 0.56048 0.49644 1.3932 0.74465 2.4982 0.74465 1.0569 0 1.8416-0.26423 2.354-0.79269 0.51244-0.54447 0.76866-1.4252 0.76867-2.6423v-10.545" fill="#aada67"/>
   <path id="path4609" d="m857.73 363.07c-0.00001 0.41637-0.0641 0.83274-0.19216 1.2491-0.11212 0.40036-0.29628 0.77668-0.55249 1.129-0.25623 0.35232-0.59253 0.65658-1.0089 0.9128-0.41637 0.25623-0.92081 0.44039-1.5133 0.55248v0.14412c0.52845 0.048 1.0249 0.16816 1.4893 0.36032 0.4644 0.19217 0.86474 0.46441 1.201 0.81671 0.35229 0.3363 0.62453 0.75266 0.81671 1.2491 0.20817 0.48042 0.31226 1.0489 0.31227 1.7055-0.00001 0.88078-0.20819 1.6334-0.62454 2.258-0.40036 0.62455-0.92882 1.137-1.5854 1.5373-0.65659 0.40035-1.4092 0.69661-2.258 0.88878-0.84875 0.19216-1.7135 0.28825-2.5943 0.28825h-1.153c-0.46441 0-0.96884-0.016-1.5133-0.048-0.52847-0.016-1.0729-0.0481-1.6334-0.0961-0.54447-0.048-1.0409-0.1201-1.4893-0.21619v-16.574c0.3363-0.048 0.71262-0.0961 1.129-0.14413 0.43237-0.048 0.88877-0.0881 1.3692-0.1201 0.49643-0.032 1.0009-0.056 1.5133-0.0721 0.51244-0.016 1.0249-0.024 1.5373-0.024 0.83272 0.00002 1.6494 0.0641 2.4501 0.19217 0.80068 0.11212 1.5213 0.32831 2.1619 0.64857 0.64055 0.30428 1.153 0.72865 1.5373 1.2731 0.40033 0.54449 0.60051 1.2411 0.60052 2.0898m-6.5577 10.209c0.44838 0 0.87275-0.04 1.2731-0.12011 0.41635-0.0801 0.77666-0.20818 1.0809-0.38433 0.32027-0.19217 0.56848-0.42437 0.74465-0.69661 0.19216-0.28825 0.28824-0.64055 0.28825-1.0569-0.00001-0.51244-0.11211-0.9208-0.33629-1.2251-0.22421-0.30426-0.52047-0.52845-0.88878-0.67259-0.35231-0.16013-0.75266-0.25621-1.201-0.28825-0.43239-0.048-0.87277-0.072-1.3212-0.0721h-1.9697v4.3718c0.0961 0.032 0.23219 0.0561 0.40835 0.0721 0.19216 0.016 0.40035 0.032 0.62455 0.048 0.22419 0.00001 0.44838 0.008 0.67258 0.024h0.62455m-1.129-7.1582c0.24021 0.00001 0.52045 0.00001 0.84074 0 0.33628-0.016 0.61653-0.04 0.84073-0.0721 0.67258-0.20817 1.2411-0.48841 1.7055-0.84073 0.46439-0.36831 0.69659-0.86474 0.6966-1.4893-0.00001-0.41635-0.0881-0.75264-0.26423-1.0089-0.17616-0.25621-0.41637-0.45638-0.72063-0.60052-0.28826-0.14411-0.61654-0.24019-0.98485-0.28825-0.36833-0.048-0.74466-0.072-1.129-0.0721-0.46441 0.00001-0.88878 0.008-1.2731 0.024-0.38434 0.016-0.6886 0.0401-0.91279 0.0721v4.2757h1.201" fill="#aada67"/>
   <path id="path6754" d="m817.56 390.79-4.5551-4.5542 41.954-41.954 4.5545 4.5551-41.953 41.953z" fill="#4176a4"/>
  </g>
 </g>
 <g transform="matrix(.92424 0 0 .92425 197 2)">
  <g id="layer1" xmlns:inkscape="http://www.inkscape.org/namespaces/inkscape" transform="translate(-512.95 -244.84)">
   <g id="g36" transform="matrix(.31734 0 0 -.31734 280.61 485.58)">
    <g id="g38" clip-path="url(#clipPath40)">
     <g id="g44" transform="translate(836.14 755.47)">
      <path id="path46" d="m0 0c-55.693 0-100.84-45.145-100.84-100.84 0-55.692 45.147-100.84 100.84-100.84 55.692 0 100.84 45.147 100.84 100.84 0 55.695-45.148 100.84-100.84 100.84" fill="#c0946f"/>
     </g>
     <g id="g48" transform="translate(900.97 665.92)">
      <path id="path50" d="m0 0c-3.148-4.499-6.755-8.375-10.636-11.587-0.001 3.653-0.36 7.29-1.078 10.851-2.028 10.159-7.072 19.688-14.326 27.134-3.617 3.728-7.766 6.938-12.277 9.495-2.255 1.279-4.6 2.395-7.012 3.337l-1.397 0.524-0.835 0.294c-0.559 0.189-1.121 0.373-1.686 0.543l-2.321-7.615c-2.469 7.589-7.06 15.087-13.606 21.623 6.524 6.535 15.005 12.112 25.037 15.884l-2.32-7.612c0.809-0.245 1.612-0.507 2.413-0.778l1.196-0.419 0.7-0.256 1.298-0.494c3.451-1.349 6.803-2.945 10.023-4.772 6.441-3.651 12.348-8.222 17.498-13.529 10.321-10.591 17.543-24.213 20.447-38.757 1.028-5.091 1.537-10.28 1.537-15.453-3.882 4.552-8.157 8.441-12.655 11.587" fill="#fff"/>
     </g>
     <g id="g52" transform="translate(793.87 704.85)">
      <path id="path54" d="m0 0c5.471-0.477 10.631-1.663 15.353-3.417-3.164-1.827-6.133-3.957-8.857-6.358-7.784-6.837-13.515-15.97-16.337-25.975-1.419-4.996-2.124-10.194-2.083-15.379 0.02-2.593 0.225-5.181 0.614-7.741l0.246-1.472 0.164-0.87c0.115-0.579 0.237-1.156 0.372-1.731l7.756 1.797c-5.339-5.933-9.537-13.658-11.924-22.595-8.921 2.383-17.992 6.938-26.275 13.741l7.753 1.797c-0.193 0.823-0.368 1.649-0.532 2.478l-0.235 1.246-0.129 0.734-0.222 1.371c-0.557 3.663-0.851 7.364-0.879 11.066-0.058 7.404 0.948 14.805 2.968 21.918 4.011 14.233 12.196 27.299 23.34 37.086 3.895 3.435 8.135 6.471 12.614 9.058-2-5.639-3.23-11.285-3.707-16.754" fill="#fff"/>
     </g>
     <g id="g56" transform="translate(813.94 592.7)">
      <path id="path58" d="m0 0c-2.323 4.976-3.875 10.037-4.717 15.004 3.164-1.826 6.493-3.333 9.935-4.491 9.813-3.324 20.587-3.72 30.663-1.161 5.036 1.269 9.891 3.257 14.36 5.885 2.236 1.314 4.375 2.785 6.397 4.403l1.152 0.948 0.672 0.577c0.444 0.39 0.883 0.784 1.313 1.189l-5.435 5.817c7.808-1.657 16.598-1.43 25.53 0.972 2.398-8.917 2.987-19.051 1.238-29.625l-5.433 5.815c-0.616-0.578-1.245-1.144-1.88-1.7l-0.961-0.826-0.571-0.479-1.077-0.878c-2.894-2.313-5.953-4.419-9.144-6.294-6.382-3.752-13.295-6.582-20.466-8.388-14.331-3.643-29.74-3.087-43.787 1.669-4.922 1.657-9.672 3.81-14.152 6.396 5.884 1.087 11.389 2.845 16.363 5.167" fill="#fff"/>
     </g>
    </g>
   </g>
  </g>
 </g>
 <g transform="matrix(.92564 0 0 .92371 262 2)">
  <g id="layer1" xmlns:inkscape="http://www.inkscape.org/namespaces/inkscape" transform="translate(-241.28 -600.22)">
   <g id="g3362" transform="matrix(.24092 0 0 .24092 183.83 504.98)">
    <g id="g6756" transform="matrix(1.25 0 0 -1.25 243 548.34)">
     <path id="path6758" d="m0 0c7.059-58.287 60.033-99.814 118.32-92.755 58.285 7.059 99.817 60.034 92.756 118.32-7.06 58.289-60.035 99.818-118.32 92.758-48.459-5.87-99.821-60.03-92.76-118.32" fill="#be8d5e"/>
    </g>
    <g id="g6760" transform="matrix(1.25 0 0 -1.25 465.22 532.36)">
     <path id="path6762" d="m0 0c0-39.863-32.314-72.181-72.178-72.181-39.863 0-72.181 32.318-72.181 72.181 0 39.864 32.318 72.181 72.181 72.181 39.865 0 72.179-32.317 72.179-72.181" fill="#fff"/>
    </g>
    <text id="text6764" font-size="15px" transform="matrix(.85202 -.52350 .52350 .85202 0 0)" y="550.9491" x="30.054642">
     <tspan id="tspan6766" font-weight="bold" font-size="30.185px" y="550.9491" x="30.054642" font-family="PT Sans Caption" fill="#ffffff">D</tspan>
    </text>
    <text id="text6768" font-size="15px" transform="rotate(-19.835)" y="529.08051" x="161.20868">
     <tspan id="tspan6770" font-weight="bold" font-size="30.185px" y="529.08051" x="161.20868" font-family="PT Sans Caption" fill="#ffffff">O</tspan>
    </text>
    <text id="text6772" font-size="15px" transform="rotate(-7.8159)" y="479.46503" x="288.31998">
     <tspan id="tspan6774" font-weight="bold" font-size="30.185px" y="479.46503" x="288.31998" font-family="PT Sans Caption" fill="#ffffff">N</tspan>
    </text>
    <text id="text6776" font-size="15px" transform="rotate(4.0633)" y="405.52634" x="400.87128">
     <tspan id="tspan6778" font-weight="bold" font-size="30.185px" y="405.52634" x="400.87128" font-family="PT Sans Caption" fill="#ffffff">N</tspan>
    </text>
    <text id="text6780" font-size="15px" transform="rotate(14.652)" y="321.29681" x="488.82468">
     <tspan id="tspan6782" font-weight="bold" font-size="30.185px" y="321.29681" x="488.82468" font-family="PT Sans Caption" fill="#ffffff">É</tspan>
    </text>
    <text id="text6784" font-size="15px" transform="rotate(24.006)" y="234.86191" x="550.60834">
     <tspan id="tspan6786" font-weight="bold" font-size="30.185px" y="234.86191" x="550.60834" font-family="PT Sans Caption" fill="#ffffff">E</tspan>
    </text>
    <text id="text6788" font-size="15px" transform="rotate(33.442)" y="138.67114" x="597.66785">
     <tspan id="tspan6790" font-weight="bold" font-size="30.185px" y="138.67114" x="597.66785" font-family="PT Sans Caption" fill="#ffffff">S</tspan>
    </text>
    <text id="text6792" font-size="15px" transform="rotate(37.96)" y="311.14172" x="613.75604">
     <tspan id="tspan6794" font-weight="bold" font-size="30.016px" y="311.14172" x="613.75604" font-family="PT Sans Caption" fill="#ffffff">P</tspan>
    </text>
    <text id="text6796" font-size="15px" transform="rotate(27.965)" y="416.40924" x="570.99841">
     <tspan id="tspan6798" font-weight="bold" font-size="30.016px" y="416.40924" x="570.99841" font-family="PT Sans Caption" fill="#ffffff">R</tspan>
    </text>
    <text id="text6800" font-size="15px" transform="rotate(17.74)" y="514.8446" x="508.50479">
     <tspan id="tspan6802" font-weight="bold" font-size="30.016px" y="514.8446" x="508.50479" font-family="PT Sans Caption" fill="#ffffff">O</tspan>
    </text>
    <text id="text6804" font-size="15px" transform="matrix(.99052 .13734 -.13734 .99052 0 0)" y="597.88531" x="435.43381">
     <tspan id="tspan6806" font-weight="bold" font-size="30.016px" y="597.88531" x="435.43381" font-family="PT Sans Caption" fill="#ffffff">T</tspan>
    </text>
    <text id="text6808" font-size="15px" transform="rotate(-1.4328)" y="663.65704" x="353.13577">
     <tspan id="tspan6810" font-weight="bold" font-size="30.016px" y="663.65704" x="353.13577" font-family="PT Sans Caption" fill="#ffffff">É</tspan>
    </text>
    <text id="text6812" font-size="15px" transform="matrix(.98103 -.19384 .19384 .98103 0 0)" y="717.03796" x="254.6675">
     <tspan id="tspan6814" font-weight="bold" font-size="30.016px" y="717.03796" x="254.6675" font-family="PT Sans Caption" fill="#ffffff">G</tspan>
    </text>
    <text id="text6816" font-size="15px" transform="rotate(-20.853)" y="753.03546" x="152.2894">
     <tspan id="tspan6818" font-weight="bold" font-size="30.016px" y="753.03546" x="152.2894" font-family="PT Sans Caption" fill="#ffffff">É</tspan>
    </text>
    <text id="text6820" font-size="15px" transform="matrix(.86937 -.49416 .49416 .86937 0 0)" y="770.18225" x="54.549862">
     <tspan id="tspan6822" font-weight="bold" font-size="30.016px" y="770.18225" x="54.549862" font-family="PT Sans Caption" fill="#ffffff">E</tspan>
    </text>
    <text id="text6824" font-size="15px" transform="matrix(.78145 -.62396 .62396 .78145 0 0)" y="772.0705" x="-47.694424">
     <tspan id="tspan6826" font-weight="bold" font-size="30.016px" y="772.0705" x="-47.694424" font-family="PT Sans Caption" fill="#ffffff">S</tspan>
    </text>
    <g id="g6836" transform="matrix(1.25 0 0 -1.25 459.98 522.07)">
     <path id="path6838" d="m0 0c4.549-37.548-22.201-71.671-59.748-76.218s-71.672 22.202-76.219 59.748c-4.549 37.548 22.203 71.672 59.75 76.22 37.548 4.548 71.673-22.202 76.22-59.75" fill="#aada67"/>
    </g>
    <g id="g6840" transform="matrix(1.25 0 0 -1.25 417.33 581.84)">
     <path id="path6842" d="m0 0c0-1.119-0.908-2.027-2.027-2.027h-63.682c-1.119 0-2.025 0.908-2.025 2.027v45.962c0 1.12 0.906 2.028 2.025 2.028h63.682c1.119 0 2.027-0.908 2.027-2.028v-45.962z" fill="#fff"/>
    </g>
    <g id="g6844" transform="matrix(1.25 0 0 -1.25 383.28 549.03)">
     <path id="path6846" d="m0 0c0-3.659-2.967-6.627-6.627-6.627s-6.627 2.968-6.627 6.627c0 3.66 2.967 6.627 6.627 6.627s6.627-2.967 6.627-6.627" fill="#aada67"/>
    </g>
    <g id="g6848" transform="matrix(1.25 0 0 -1.25 382.82 570.85)">
     <path id="path6850" d="m0 0h-12.504l2.365 12.438h7.772l2.367-12.438z" fill="#aada67"/>
    </g>
    <g id="g6852" transform="matrix(1.25 0 0 -1.25 375 480.35)">
     <path id="path6854" d="m0 0c-15.912 0-28.811-12.898-28.811-28.81v-7.429h6.293l-0.099 7.429c0 12.49 10.125 22.615 22.617 22.615 12.49 0 22.617-10.125 22.617-22.615l-0.101-7.429h6.295v7.429c0 13.227-12.899 28.81-28.811 28.81" fill="#fff"/>
    </g>
   </g>
  </g>
 </g>
 <g transform="matrix(.92611 0 0 .93772 327 2)">
  <g id="layer1" xmlns:inkscape="http://www.inkscape.org/namespaces/inkscape" transform="translate(-173.91 -502.93)">
   <g id="g64" transform="matrix(.31264 0 0 -.31264 -176.56 739.73)">
    <g id="g66" clip-path="url(#clipPath68)">
     <g id="g72" transform="translate(1225.1 754.23)">
      <path id="path74" d="m0 0c-55.69 0-100.84-45.145-100.84-100.84s45.147-100.84 100.84-100.84 100.84 45.145 100.84 100.84-45.147 100.84-100.84 100.84" fill="#b3d182"/>
     </g>
     <g id="g76" transform="translate(1230.8 678.95)">
      <path id="path78" d="m0 0c0.409-1.42 17.146-47.461 54.22-18.745 37.072 28.716 37.449 39.615 43.424 39.556-9.191 1.591-49.763 15.81-65.741 15.195-15.976-0.623-23.859-4.414-30.606-16.225-4.273-7.467-2.451-15.761-1.297-19.781" fill="#fff"/>
     </g>
     <g id="g80" transform="translate(1230.8 678.95)">
      <path id="path82" d="m0 0c0.409-1.42 17.146-47.461 54.22-18.745 37.072 28.716 37.449 39.615 43.424 39.556-9.191 1.591-49.763 15.81-65.741 15.195-15.976-0.623-23.859-4.414-30.606-16.225-4.273-7.467-2.451-15.761-1.297-19.781z" stroke="#b3d182" stroke-miterlimit="10" fill="none"/>
     </g>
     <g id="g84" transform="translate(1224.5 670.09)">
      <path id="path86" d="m0 0c1.156 1.896 2.65 3.439 4.131 4.799 1.499 1.367 3.068 2.576 4.668 3.715 3.203 2.267 6.536 4.242 9.94 6.06 3.407 1.811 6.886 3.461 10.449 4.932 1.783 0.732 3.587 1.418 5.429 2.031 1.842 0.622 3.761 1.125 5.627 1.526 7.508 1.587 15.021 2.666 22.555 3.705 3.768 0.505 7.537 0.978 11.313 1.402 3.777 0.399 7.555 0.853 11.353 0.964-3.781-0.319-7.523-0.978-11.267-1.583-3.74-0.629-7.473-1.307-11.198-2.018-7.437-1.443-14.898-2.939-22.154-4.896-1.82-0.499-3.549-1.056-5.272-1.744-1.725-0.682-3.432-1.44-5.119-2.245-3.372-1.612-6.668-3.404-9.863-5.335-3.192-1.934-6.293-4.016-9.166-6.297-1.432-1.143-2.811-2.336-4.049-3.598-1.24-1.273-2.336-2.564-3.074-3.967l-4.303 2.549z" fill="#b3d182"/>
     </g>
     <g id="g88" transform="translate(1231.7 656.19)">
      <path id="path90" d="m0 0s-0.34 54.348-44.364 52.584c-23.203-0.928-58.242 1.604-58.242 1.604s-0.344-6.495 13.533-31.041c13.5-23.88 71.689-38.954 79.606-33.95 7.924 5.001 10.619 0.852 9.471 10.803" fill="#fff"/>
     </g>
     <g id="g92" transform="translate(1231.7 656.19)">
      <path id="path94" d="m0 0s-0.34 54.348-44.364 52.584c-23.203-0.928-58.242 1.604-58.242 1.604s-0.344-6.495 13.533-31.041c13.5-23.88 71.689-38.954 79.606-33.95 7.924 5.001 10.619 0.852 9.471 10.803z" stroke="#b3d182" stroke-miterlimit="10" fill="none"/>
     </g>
     <g id="g96" transform="translate(1234.1 641.21)">
      <path id="path98" d="m0 0c-1.214 0.729-2.114 1.521-2.994 2.286-0.872 0.772-1.694 1.551-2.506 2.332-1.617 1.563-3.185 3.133-4.754 4.695-3.134 3.127-6.267 6.221-9.473 9.243-6.403 6.043-13.076 11.795-20.127 17.067-7.047 5.273-14.469 10.067-22.282 14.171-7.807 4.102-16.011 7.505-24.522 9.975 8.617-2.067 17.017-5.092 25.078-8.856 8.064-3.762 15.794-8.254 23.176-13.253 7.385-4.999 14.423-10.511 21.184-16.317 3.384-2.901 6.699-5.879 9.981-8.86 1.641-1.486 3.275-2.976 4.914-4.416 0.819-0.718 1.64-1.423 2.458-2.082 0.816-0.653 1.637-1.275 2.349-1.645l-2.482-4.34z" fill="#b3d182"/>
     </g>
     <g id="g100" transform="translate(1223.1 628.92)">
      <path id="path102" d="m0 0c0.639-0.827 19.48-29.591-17.909-38.608-37.389-9.014-44.198-4.664-47.382-8.079 8.397 34.239 14.483 38.516 23.478 47.325 8.999 8.803 15.988 12.349 26.778 11.234 6.825-0.703 13.22-9.541 15.035-11.872" fill="#fff"/>
     </g>
     <g id="g104" transform="translate(1223.1 628.92)">
      <path id="path106" d="m0 0c0.639-0.827 19.48-29.591-17.909-38.608-37.389-9.014-44.198-4.664-47.382-8.079 8.397 34.239 14.483 38.516 23.478 47.325 8.999 8.803 15.988 12.349 26.778 11.234 6.825-0.703 13.22-9.541 15.035-11.872z" stroke="#b3d182" stroke-miterlimit="10" fill="none"/>
     </g>
     <g id="g108" transform="translate(1231.2 624.51)">
      <path id="path110" d="m0 0c-1.294 0.186-2.731 0.154-4.209 0.064-1.476-0.094-2.978-0.265-4.48-0.477-3.008-0.427-6.026-1.017-9.022-1.702-2.994-0.693-5.974-1.484-8.904-2.401-2.92-0.924-5.843-1.943-8.493-3.289-2.577-1.363-5.026-3.34-7.415-5.279-2.389-1.971-4.722-4.029-7.027-6.121-4.615-4.18-9.086-8.531-13.597-12.84 4.211 4.6 8.383 9.24 12.727 13.736 2.169 2.252 4.371 4.475 6.656 6.631 2.313 2.137 4.598 4.287 7.428 6.051 2.815 1.67 5.735 2.899 8.686 4.061 2.953 1.144 5.947 2.158 8.975 3.074 3.031 0.911 6.094 1.726 9.226 2.388 1.567 0.329 3.15 0.618 4.777 0.833 1.622 0.206 3.315 0.373 5.127 0.251l-0.455-4.98z" fill="#b3d182"/>
     </g>
    </g>
   </g>
  </g>
 </g>
 <g transform="matrix(.92424 0 0 .92424 392 2)">
  <g id="layer1" xmlns:inkscape="http://www.inkscape.org/namespaces/inkscape" transform="translate(-576.87 -448.74)">
   <g id="g10362" transform="matrix(.29103 0 0 .29103 419.45 364.23)">
    <g id="g2942" transform="matrix(1.25 0 0 -1.25 600.13 318.93)">
     <path id="path2944" d="m0 0c-5.332 1.329-11.058 1.996-16.97 2.075 3.862 3.277 8.055 6.278 12.581 8.853 9.438 5.42 20.514 8.859 31.838 9.121 11.321 0.328 22.575-2.532 32.306-7.517 9.778-4.978 18.129-11.918 25.068-19.712 3.475-3.904 6.611-8.037 9.443-12.318l1.048-1.612 0.423-0.669 0.63-1.013 1.228-2.038 6.861 4.039c-1.744-9.933-4.685-19.107-8.372-27.577-8.47 3.691-17.049 6.351-25.42 7.686l6.858 4.037-0.994 1.651-0.508 0.816-1.182 1.833c-2.267 3.429-4.739 6.676-7.411 9.677-5.336 6.001-11.507 11.023-18.23 14.439-6.716 3.424-13.952 5.194-21.143 4.994-7.196-0.176-14.337-2.312-20.923-6.078-3.147-1.79-6.168-3.939-9.034-6.371 0.013 5.093 0.573 10.359 1.899 15.684" fill="#be8d5e"/>
    </g>
    <g id="g2946" transform="matrix(1.25 0 0 -1.25 708.44 488.65)">
     <path id="path2948" d="m0 0c5.332-1.329 11.058-1.995 16.97-2.074-3.862-3.277-8.054-6.279-12.58-8.854-9.438-5.42-20.515-8.861-31.839-9.123-11.322-0.329-22.576 2.531-32.307 7.516-9.78 4.979-18.13 11.92-25.069 19.715-3.475 3.904-6.611 8.037-9.443 12.318l-1.047 1.613-0.424 0.669-0.63 1.012-1.227 2.038-6.861-4.038c1.744 9.933 4.685 19.107 8.373 27.577 8.47-3.691 17.048-6.352 25.42-7.687l-6.859-4.037 0.994-1.651 0.508-0.816 1.182-1.833c2.267-3.429 4.739-6.676 7.411-9.678 5.336-6.002 11.507-11.024 18.23-14.441 6.716-3.424 13.952-5.194 21.143-4.994 7.192 0.177 14.333 2.314 20.919 6.081 3.147 1.789 6.168 3.939 9.034 6.371-0.01-5.093-0.57-10.359-1.895-15.684" fill="#aada67"/>
    </g>
   </g>
  </g>
 </g>
 <g transform="matrix(.92420 0 0 .92419 457 2)">
  <g id="layer1" xmlns:inkscape="http://www.inkscape.org/namespaces/inkscape" transform="translate(-425.99 -426.09)">
   <g id="g4239" transform="matrix(.25138 0 0 .25138 319.65 367.64)">
    <g id="g464" transform="matrix(1.25 0 0 -1.25 680.3 363.79)">
     <path id="path466" d="m0 0c0-55.52-45.009-100.53-100.53-100.53s-100.53 45.009-100.53 100.53 45.008 100.53 100.53 100.53c55.521 0 100.53-45.009 100.53-100.53" fill="#4176a4"/>
    </g>
    <g id="g468" transform="matrix(1.25 0 0 -1.25 467.91 318.73)">
     <path id="path470" d="m0 0c4.024-1.342 18.187-6.561 19.677-7.305 1.492-0.746 1.79-3.281 1.194-5.515-0.597-2.237-10.586-35.629-20.274-49.643-1.044-1.342-2.684-2.236-4.771-1.193-2.088 1.043-16.995 6.859-19.977 7.902 6.709 15.205 24.151 55.754 24.151 55.754" fill="#fff"/>
    </g>
    <g id="g472" transform="matrix(1.25 0 0 -1.25 467.91 318.73)">
     <path id="path474" d="m0 0c4.024-1.342 18.187-6.561 19.677-7.305 1.492-0.746 1.79-3.281 1.194-5.515-0.597-2.237-10.586-35.629-20.274-49.643-1.044-1.342-2.684-2.236-4.771-1.193-2.088 1.043-16.995 6.859-19.977 7.902 6.709 15.205 24.151 55.754 24.151 55.754z" stroke="#fff" stroke-miterlimit="10" stroke-width="2" fill="none"/>
    </g>
    <g id="g476" transform="matrix(1.25 0 0 -1.25 581.97 389.68)">
     <path id="path478" d="m0 0h0.001l-0.001-0.002v0.002z" fill="#fff"/>
    </g>
    <g id="g480" transform="matrix(1.25 0 0 -1.25 581.97 389.68)">
     <path id="path482" d="m0 0h0.001l-0.001-0.002v0.002z" stroke="#fff" stroke-miterlimit="10" stroke-width="2" fill="none"/>
    </g>
    <g id="g484" transform="matrix(1.25 0 0 -1.25 494.13 332.89)">
     <path id="path486" d="m0 0c6.161-2.385 16.099-2.186 23.055-2.385 6.958-0.199 21.865-0.795 25.84-1.59-5.166-8.15-11.329-14.509-6.161-15.9 5.167-1.393 12.125-4.176 17.292-10.338 5.169-6.16 13.914-16.496 17.889-20.473 3.976-3.974 11.231-11.777 13.764-14.162 2.535-2.384 2.385-2.832 1.939-4.621-0.448-1.789-0.993-6.957-9.939-7.256-0.496-5.267-2.087-5.961-3.38-6.955-1.29-0.994-4.174-2.185-9.341-0.994-1.093-2.832-6.956-6.709-14.211-5.168-1.193-1.689-3.876-3.58-6.858-2.783-2.982 0.795-9.938 3.479-13.367 5.863-3.428 2.385-25.342 21.469-30.411 24.748-5.068 3.278-14.312 8.496-22.658 16.844 5.813 12.524 13.117 29.518 16.547 45.17" fill="#4176a4"/>
    </g>
    <g id="g488" transform="matrix(1.25 0 0 -1.25 494.13 332.89)">
     <path id="path490" d="m0 0c6.161-2.385 16.099-2.186 23.055-2.385 6.958-0.199 21.865-0.795 25.84-1.59-5.166-8.15-11.329-14.509-6.161-15.9 5.167-1.393 12.125-4.176 17.292-10.338 5.169-6.16 13.914-16.496 17.889-20.473 3.976-3.974 11.231-11.777 13.764-14.162 2.535-2.384 2.385-2.832 1.939-4.621-0.448-1.789-0.993-6.957-9.939-7.256-0.496-5.267-2.087-5.961-3.38-6.955-1.29-0.994-4.174-2.185-9.341-0.994-1.093-2.832-6.956-6.709-14.211-5.168-1.193-1.689-3.876-3.58-6.858-2.783-2.982 0.795-9.938 3.479-13.367 5.863-3.428 2.385-25.342 21.469-30.411 24.748-5.068 3.278-14.312 8.496-22.658 16.844 5.813 12.524 13.117 29.518 16.547 45.17z" stroke="#fff" stroke-miterlimit="10" stroke-width="2" fill="none"/>
    </g>
    <g id="g492" transform="matrix(1.25 0 0 -1.25 486.67 402.83)">
     <path id="path494" d="m0 0c1.789 2.484 6.208 5.57 8.448 5.467 4.324-0.199 11.331-6.262 3.081-14.213-1.946-1.875-5.366-3.975-8.945-1.69-2.024 1.295-5.512 6.37-2.584 10.436" fill="#fff"/>
    </g>
    <g id="g496" transform="matrix(1.25 0 0 -1.25 486.67 402.83)">
     <path id="path498" d="m0 0c1.789 2.484 6.208 5.57 8.448 5.467 4.324-0.199 11.331-6.262 3.081-14.213-1.946-1.875-5.366-3.975-8.945-1.69-2.024 1.295-5.512 6.37-2.584 10.436z" stroke="#4176a4" stroke-miterlimit="10" stroke-width="2" fill="none"/>
    </g>
    <g id="g500" transform="matrix(1.25 0 0 -1.25 498.23 416.87)">
     <path id="path502" d="m0 0c2.167 2.59 5.665 5.27 7.951 6.063 2.288 0.794 6.659 0.099 8.348-1.788 1.691-1.888 3.877-5.765 1.291-8.648-2.582-2.881-4.84-5.043-7.849-6.658-5.367-2.883-13.815 6.16-9.741 11.031" fill="#fff"/>
    </g>
    <g id="g504" transform="matrix(1.25 0 0 -1.25 498.23 416.87)">
     <path id="path506" d="m0 0c2.167 2.59 5.665 5.27 7.951 6.063 2.288 0.794 6.659 0.099 8.348-1.788 1.691-1.888 3.877-5.765 1.291-8.648-2.582-2.881-4.84-5.043-7.849-6.658-5.367-2.883-13.815 6.16-9.741 11.031z" stroke="#4176a4" stroke-miterlimit="10" stroke-width="2" fill="none"/>
    </g>
    <g id="g508" transform="matrix(1.25 0 0 -1.25 513.76 429.91)">
     <path id="path510" d="m0 0c1.383 2.289 4.273 5.266 6.26 7.354 1.99 2.087 4.97 3.378 7.554 2.285 2.583-1.094 5.367-4.471 3.479-7.85-1.888-3.381-4.597-8.07-7.752-9.84-4.076-2.287-12.423 3.28-9.541 8.051" fill="#fff"/>
    </g>
    <g id="g512" transform="matrix(1.25 0 0 -1.25 513.76 429.91)">
     <path id="path514" d="m0 0c1.383 2.289 4.273 5.266 6.26 7.354 1.99 2.087 4.97 3.378 7.554 2.285 2.583-1.094 5.367-4.471 3.479-7.85-1.888-3.381-4.597-8.07-7.752-9.84-4.076-2.287-12.423 3.28-9.541 8.051z" stroke="#4176a4" stroke-miterlimit="10" stroke-width="2" fill="none"/>
    </g>
    <g id="g516" transform="matrix(1.25 0 0 -1.25 526.29 445.24)">
     <path id="path518" d="m0 0c-0.67 2.111 1.888 6.16 3.977 8.545 2.086 2.387 4.67 2.211 6.259 1.096 1.495-1.053 3.125-3.207 1.485-8.797 0.84-0.485 2.739-1.49 4.155-2.086-2.013-1.643-5.441-3.951-9.688-3.43-4.25 0.522-5.417 2.244-6.188 4.672" fill="#fff"/>
    </g>
    <g id="g520" transform="matrix(1.25 0 0 -1.25 526.29 445.24)">
     <path id="path522" d="m0 0c-0.67 2.111 1.888 6.16 3.977 8.545 2.086 2.387 4.67 2.211 6.259 1.096 1.495-1.053 3.125-3.207 1.485-8.797 0.84-0.485 2.739-1.49 4.155-2.086-2.013-1.643-5.441-3.951-9.688-3.43-4.25 0.522-5.417 2.244-6.188 4.672z" stroke="#4176a4" stroke-miterlimit="10" stroke-width="2" fill="none"/>
    </g>
    <g id="g524" transform="matrix(1.25 0 0 -1.25 463.69 313.51)">
     <path id="path526" d="m0 0c-2.073 0.777-9.138 3.619-17.444 7.09-6.963-13.779-10.891-29.356-10.891-45.85 0-11.744 1.996-23.023 5.655-33.519 11.406 21.498 25.081 57.941 26.258 62.142 1.391 4.969 1.193 8.348-3.578 10.137" fill="#4176a4"/>
    </g>
    <g id="g528" transform="matrix(1.25 0 0 -1.25 463.69 313.51)">
     <path id="path530" d="m0 0c-2.073 0.777-9.138 3.619-17.444 7.09-6.963-13.779-10.891-29.356-10.891-45.85 0-11.744 1.996-23.023 5.655-33.519 11.406 21.498 25.081 57.941 26.258 62.142 1.391 4.969 1.193 8.348-3.578 10.137z" stroke="#fff" stroke-miterlimit="10" stroke-width="2" fill="none"/>
    </g>
    <g id="g532" transform="matrix(1.25 0 0 -1.25 666.83 309.58)">
     <path id="path534" d="m0 0c-16.502-8.451-34.654-17.563-40.078-20.453-2.385-1.195-3.628-2.983-3.479-3.43 1.639 0.297 3.578-0.15 5.814-3.728 2.236-3.577 19.232-30.858 23.107-40.547 3.875-9.69 4.622-10.883 2.83-11.778-1.787-0.894-2.533-1.64-1.637-3.13 0.761-1.272 6.5-9.032 8.825-12.221 9.159 15.154 14.431 32.92 14.431 51.92 0 15.529-3.524 30.236-9.813 43.367" fill="#fff"/>
    </g>
    <g id="g536" transform="matrix(1.25 0 0 -1.25 618.95 406.5)">
     <path id="path538" d="m0 0 2.335 1.838c-0.845 5.762-9.25 30.473-13.125 38.674-2.352 4.488-3.827 6.459-4.764 7.836 0.081 0.068 0.181 0.142 0.289 0.22-4.434 1.106-16.941 5.25-24.073 8.725-7.751 3.777-10.733 1.787-14.509 0-3.778-1.789-10.648-3.861-15.504-5.168-5.168-1.393-6.162-4.721-6.461-6.957-0.298-2.236-0.893-8.123-1.564-10.436-0.671-2.308-2.757-6.259-2.757-8.871 1.043-4.619 7.204-4.843 10.782-3.254 3.579 1.592 9.043 9.045 10.336 13.12 1.49-0.497 8.05 0.199 9.64 0.695 0.099-9.143 7.432-22.762 19.854-24.25 4.375-4.774 16.35-17.195 19.331-20.127 1.669 0.918 7.672 5.223 10.437 7.209-0.106 0.26-0.195 0.51-0.247 0.746" fill="#fff"/>
    </g>
    <g id="g540" transform="matrix(1.25 0 0 -1.25 618.95 406.5)">
     <path id="path542" d="m0 0 2.335 1.838c-0.845 5.762-9.25 30.473-13.125 38.674-2.352 4.488-3.827 6.459-4.764 7.836 0.081 0.068 0.181 0.142 0.289 0.22-4.434 1.106-16.941 5.25-24.073 8.725-7.751 3.777-10.733 1.787-14.509 0-3.778-1.789-10.648-3.861-15.504-5.168-5.168-1.393-6.162-4.721-6.461-6.957-0.298-2.236-0.893-8.123-1.564-10.436-0.671-2.308-2.757-6.259-2.757-8.871 1.043-4.619 7.204-4.843 10.782-3.254 3.579 1.592 9.043 9.045 10.336 13.12 1.49-0.497 8.05 0.199 9.64 0.695 0.099-9.143 7.432-22.762 19.854-24.25 4.375-4.774 16.35-17.195 19.331-20.127 1.669 0.918 7.672 5.223 10.437 7.209-0.106 0.26-0.195 0.51-0.247 0.746z" stroke="#4176a4" stroke-miterlimit="10" stroke-width="2" fill="none"/>
    </g>
    <g id="g544" transform="matrix(1.25 0 0 -1.25 652.6 409.29)">
     <path id="path546" d="m0 0c1.791 0.896 1.044 2.088-2.831 11.777-3.875 9.692-20.871 36.971-23.107 40.549-2.235 3.578-4.175 4.026-5.814 3.727-0.008 0.021 0.004 0.062 0.003 0.093-3.581-1.611-9.308-4.388-10.719-5.564 0.937-1.377 2.413-3.348 4.764-7.836 3.875-8.201 12.28-32.912 13.126-38.674l-2.336-1.838c0.299-1.341 1.49-3.13 3.28-4.771 1.789-1.639 9.243-2.088 13.268-1.492 2.614 0.388 6.165 1.904 9.031 3.209 0.337 0.277 0.778 0.541 1.335 0.82" fill="#4176a4"/>
    </g>
    <g id="g548" transform="matrix(1.25 0 0 -1.25 652.6 409.29)">
     <path id="path550" d="m0 0c1.791 0.896 1.044 2.088-2.831 11.777-3.875 9.692-20.871 36.971-23.107 40.549-2.235 3.578-4.175 4.026-5.814 3.727-0.008 0.021 0.004 0.062 0.003 0.093-3.581-1.611-9.308-4.388-10.719-5.564 0.937-1.377 2.413-3.348 4.764-7.836 3.875-8.201 12.28-32.912 13.126-38.674l-2.336-1.838c0.299-1.341 1.49-3.13 3.28-4.771 1.789-1.639 9.243-2.088 13.268-1.492 2.614 0.388 6.165 1.904 9.031 3.209 0.337 0.277 0.778 0.541 1.335 0.82z" stroke="#fff" stroke-miterlimit="10" stroke-width="2" fill="none"/>
    </g>
    <g id="g552" transform="matrix(1.25 0 0 -1.25 565.07 445.19)">
     <path id="path554" d="m0 0-16.682 14.768 2.207 1.748s-0.491-1.713 0.91-3.34c1.4-1.627 13.565-13.176 13.565-13.176" fill="#fff"/>
    </g>
    <g id="g556" transform="matrix(1.25 0 0 -1.25 582.56 438.35)">
     <path id="path558" d="m0 0s-14.883 14.063-21.354 19.576c-1.683 1.434-3.132 1.674-3.208 1.666 1.703 0.668 2.327 2.324 2.327 2.324s0.965-1.99 2.135-3.156c1.169-1.164 20.461-20.377 20.461-20.377l-0.361-0.033z" fill="#fff"/>
    </g>
    <g id="g560" transform="matrix(1.25 0 0 -1.25 598.27 428)">
     <path id="path562" d="m0 0s-23.215 21.008-23.951 21.113c-0.736 0.106-1.996 0.526-1.996 0.526s1.366 0.42 1.786 0.945 2.731-2.52 4.307-3.57c1.576-1.051 19.854-19.014 19.854-19.014" fill="#fff"/>
    </g>
    <g id="g564" transform="matrix(1.25 0 0 -1.25 554.29 237.74)">
     <path id="path566" d="m0 0c-55.693 0-100.84-45.145-100.84-100.84 0-55.691 45.147-100.84 100.84-100.84 55.691 0 100.84 45.147 100.84 100.84 0 55.695-45.149 100.84-100.84 100.84z" stroke="#4176a4" stroke-miterlimit="10" stroke-width="2" fill="none"/>
    </g>
   </g>
  </g>
 </g>
 <g transform="matrix(.92424 0 0 .92424 522 2)">
  <g id="layer1" xmlns:inkscape="http://www.inkscape.org/namespaces/inkscape" transform="translate(-252.19 -589.25)" xmlns:sodipodi="http://sodipodi.sourceforge.net/DTD/sodipodi-0.dtd">
   <path id="path4898" d="m42.931 24.331a30.557 30.557 0 1 1 -61.114 0 30.557 30.557 0 1 1 61.114 0z" transform="translate(273.03 598.41)" fill="#fff"/>
   <g id="g5962" transform="matrix(.26270 0 0 .26255 186.68 482.48)">
    <g id="g698" transform="matrix(1.25 0 0 -1.25 -2313 908.03)">
     <g id="g700" clip-path="url(#clipPath702)">
      <g id="g706" transform="translate(2053.6 288.81)">
       <path id="path708" d="m0 0c6.475-53.455 55.057-91.541 108.51-85.065 53.453 6.473 91.541 55.057 85.066 108.51-6.475 53.458-55.059 91.542-108.51 85.068-44.441-5.38-91.545-55.053-85.07-108.51" fill="#be8d5e"/>
      </g>
      <g id="g710" transform="translate(2216.6 300.53)">
       <path id="path712" d="m0 0c0-36.559-29.635-66.197-66.193-66.197-36.559 0-66.2 29.638-66.2 66.197 0 36.56 29.641 66.197 66.2 66.197 36.555 0 66.19-29.637 66.19-66.197" fill="#fff"/>
      </g>
     </g>
    </g>
    <text id="text714" font-size="15px" transform="rotate(-31.591)" y="559.19141" x="30.726347">
     <tspan id="tspan716" font-weight="bold" font-size="27.683px" y="559.19141" x="30.726347" font-family="PT Sans Caption" fill="#ffffff">D</tspan>
    </text>
    <text id="text718" font-size="15px" transform="rotate(-19.858)" y="537.36145" x="161.91547">
     <tspan id="tspan720" font-weight="bold" font-size="27.683px" y="537.36145" x="161.91547" font-family="PT Sans Caption" fill="#ffffff">O</tspan>
    </text>
    <text id="text722" font-size="15px" transform="rotate(-7.8384)" y="487.78812" x="289.03513">
     <tspan id="tspan724" font-weight="bold" font-size="27.683px" y="487.78812" x="289.03513" font-family="PT Sans Caption" fill="#ffffff">N</tspan>
    </text>
    <text id="text726" font-size="15px" transform="rotate(4.0637)" y="413.71399" x="401.82791">
     <tspan id="tspan728" font-weight="bold" font-size="27.683px" y="413.71399" x="401.82791" font-family="PT Sans Caption" fill="#ffffff">N</tspan>
    </text>
    <text id="text730" font-size="15px" transform="rotate(14.672)" y="329.29733" x="489.74149">
     <tspan id="tspan732" font-weight="bold" font-size="27.683px" y="329.29733" x="489.74149" font-family="PT Sans Caption" fill="#ffffff">É</tspan>
    </text>
    <text id="text734" font-size="15px" transform="rotate(24.027)" y="242.82529" x="551.48273">
     <tspan id="tspan736" font-weight="bold" font-size="27.683px" y="242.82529" x="551.48273" font-family="PT Sans Caption" fill="#ffffff">E</tspan>
    </text>
    <text id="text738" font-size="15px" transform="rotate(33.485)" y="146.37376" x="598.60181">
     <tspan id="tspan740" font-weight="bold" font-size="27.683px" y="146.37376" x="598.60181" font-family="PT Sans Caption" fill="#ffffff">S</tspan>
    </text>
    <text id="text742" font-size="15px" transform="rotate(38.113)" y="299.3147" x="615.01086">
     <tspan id="tspan744" font-weight="bold" font-size="27.528px" y="299.3147" x="615.01086" font-family="PT Sans Caption" fill="#ffffff">P</tspan>
    </text>
    <text id="text746" font-size="15px" transform="matrix(.88234 .47061 -.47061 .88234 0 0)" y="405.1358" x="572.36072">
     <tspan id="tspan748" font-weight="bold" font-size="27.528px" y="405.1358" x="572.36072" font-family="PT Sans Caption" fill="#ffffff">R</tspan>
    </text>
    <text id="text750" font-size="15px" transform="rotate(17.815)" y="503.9949" x="509.91129">
     <tspan id="tspan752" font-weight="bold" font-size="27.528px" y="503.9949" x="509.91129" font-family="PT Sans Caption" fill="#ffffff">O</tspan>
    </text>
    <text id="text754" font-size="15px" transform="matrix(.99047 .13770 -.13770 .99047 0 0)" y="587.55237" x="436.36304">
     <tspan id="tspan756" font-weight="bold" font-size="27.528px" y="587.55237" x="436.36304" font-family="PT Sans Caption" fill="#ffffff">T</tspan>
    </text>
    <text id="text758" font-size="15px" transform="matrix(.99968 -.025184 .025184 .99968 0 0)" y="653.55237" x="353.74402">
     <tspan id="tspan760" font-weight="bold" font-size="27.528px" y="653.55237" x="353.74402" font-family="PT Sans Caption" fill="#ffffff">É</tspan>
    </text>
    <text id="text762" font-size="15px" transform="rotate(-11.223)" y="707.07819" x="255.03882">
     <tspan id="tspan764" font-weight="bold" font-size="27.528px" y="707.07819" x="255.03882" font-family="PT Sans Caption" fill="#ffffff">G</tspan>
    </text>
    <text id="text766" font-size="15px" transform="rotate(-20.945)" y="743.12891" x="152.01256">
     <tspan id="tspan768" font-weight="bold" font-size="27.528px" y="743.12891" x="152.01256" font-family="PT Sans Caption" fill="#ffffff">É</tspan>
    </text>
    <text id="text770" font-size="15px" transform="matrix(.86868 -.49537 .49537 .86868 0 0)" y="760.11017" x="54.369045">
     <tspan id="tspan772" font-weight="bold" font-size="27.528px" y="760.11017" x="54.369045" font-family="PT Sans Caption" fill="#ffffff">E</tspan>
    </text>
    <text id="text774" font-size="15px" transform="rotate(-38.741)" y="761.82129" x="-48.479328">
     <tspan id="tspan776" font-weight="bold" font-size="27.528px" y="761.82129" x="-48.479328" font-family="PT Sans Caption" fill="#ffffff">S</tspan>
    </text>
    <g id="g778" transform="matrix(1.25 0 0 -1.25 -2313 908.03)">
     <g id="g780" clip-path="url(#clipPath782)">
      <g id="g786" transform="translate(2212.8 308.08)">
       <path id="path788" d="m0 0c4.172-34.436-20.359-65.73-54.795-69.9-34.434-4.169-65.728 20.362-69.9 54.795-4.172 34.436 20.363 65.731 54.797 69.903 34.438 4.17 65.735-20.363 69.903-54.798" fill="#4176a4"/>
      </g>
      <g id="g790" transform="translate(2181.5 264.24)">
       <path id="path792" d="m0 0c0-1.026-0.832-1.859-1.859-1.859h-58.403c-1.025 0-1.857 0.833-1.857 1.859v42.152c0 1.028 0.832 1.861 1.857 1.861h58.403c1.027 0 1.859-0.833 1.859-1.861v-42.152z" fill="#fff"/>
      </g>
      <g id="g794" transform="translate(2156.5 288.3)">
       <path id="path796" d="m0 0c0-3.356-2.721-6.079-6.078-6.079-3.358 0-6.078 2.723-6.078 6.079s2.72 6.077 6.078 6.077c3.357 0 6.078-2.721 6.078-6.077" fill="#4176a4"/>
      </g>
      <g id="g798" transform="translate(2156.2 272.29)">
       <path id="path800" d="m0 0h-11.469l2.17 11.408h7.127l2.172-11.408z" fill="#4176a4"/>
      </g>
      <g id="g802" transform="translate(2150.4 338.69)">
       <path id="path804" d="m0 0c-14.594 0-26.422-11.829-26.422-26.422v-6.813h5.772l-0.092 6.813c0 11.454 9.285 20.74 20.742 20.74 11.455 0 20.742-9.286 20.742-20.74l-0.094-6.813h5.774v6.813c0 12.131-11.828 26.422-26.422 26.422" fill="#fff"/>
      </g>
     </g>
    </g>
   </g>
  </g>
 </g>
 <g transform="matrix(.92424 0 0 .92424 587 2)">
  <g id="layer1" xmlns:inkscape="http://www.inkscape.org/namespaces/inkscape" transform="translate(-208.62 -526.39)" xmlns:sodipodi="http://sodipodi.sourceforge.net/DTD/sodipodi-0.dtd">
   <path id="path4898" d="m42.931 24.331a30.557 30.557 0 1 1 -61.114 0 30.557 30.557 0 1 1 61.114 0z" transform="translate(229.58 534.72)" fill="#fff"/>
   <g id="g4664" transform="matrix(.26255 0 0 .26255 -29.93 428.62)">
    <g id="g568" transform="matrix(1.25 0 0 -1.25 913.22 512.73)">
     <path id="path570" d="m0 0c6.473-53.455 55.056-91.541 108.51-85.065 53.454 6.473 91.54 55.057 85.068 108.51-6.475 53.458-55.06 91.542-108.52 85.068-44.432-5.38-91.536-55.053-85.06-108.51" fill="#4176a4"/>
    </g>
    <text id="text572" font-size="15px" transform="matrix(.54903 .83580 -.83580 .54903 0 0)" y="-479.10443" x="972.3338">
     <tspan id="tspan574" font-weight="bold" font-size="27.527px" y="-479.10443" x="972.3338" font-family="PT Sans Caption" fill="#ffffff">M</tspan>
    </text>
    <text id="text576" font-size="15px" transform="rotate(44.588)" y="-259.43109" x="1077.2224">
     <tspan id="tspan578" font-weight="bold" font-size="27.527px" y="-259.43109" x="1077.2224" font-family="PT Sans Caption" fill="#ffffff">A</tspan>
    </text>
    <text id="text580" font-size="15px" transform="rotate(33.766)" y="-48.884758" x="1126.89">
     <tspan id="tspan582" font-weight="bold" font-size="27.527px" y="-48.884758" x="1126.89" font-family="PT Sans Caption" fill="#ffffff">D</tspan>
    </text>
    <text id="text584" font-size="15px" transform="rotate(23.746)" y="151.3175" x="1139.4226">
     <tspan id="tspan586" font-weight="bold" font-size="27.527px" y="151.3175" x="1139.4226" font-family="PT Sans Caption" fill="#ffffff">E</tspan>
    </text>
    <text id="text588" font-size="15px" transform="rotate(11.932)" y="385.36612" x="1109.6322">
     <tspan id="tspan590" font-weight="bold" font-size="27.527px" y="385.36612" x="1109.6322" font-family="PT Sans Caption" fill="#ffffff">I</tspan>
    </text>
    <text id="text592" font-size="15px" transform="rotate(3.2558)" y="550.43396" x="1051.1946">
     <tspan id="tspan594" font-weight="bold" font-size="27.527px" y="550.43396" x="1051.1946" font-family="PT Sans Caption" fill="#ffffff">N</tspan>
    </text>
    <text id="text596" font-size="15px" transform="rotate(-11.192)" y="801.27106" x="910.31421">
     <tspan id="tspan598" font-weight="bold" font-size="27.527px" y="801.27106" x="910.31421" font-family="PT Sans Caption" fill="#ffffff">F</tspan>
    </text>
    <text id="text600" font-size="15px" transform="rotate(-20.734)" y="943.88672" x="781.84503">
     <tspan id="tspan602" font-weight="bold" font-size="27.527px" y="943.88672" x="781.84503" font-family="PT Sans Caption" fill="#ffffff">R</tspan>
    </text>
    <text id="text604" font-size="15px" transform="rotate(-30.28)" y="1063.5243" x="633.05353">
     <tspan id="tspan606" font-weight="bold" font-size="27.527px" y="1063.5243" x="633.05353" font-family="PT Sans Caption" fill="#ffffff">A</tspan>
    </text>
    <text id="text608" font-size="15px" transform="rotate(-41.088)" y="1167.0645" x="442.4762">
     <tspan id="tspan610" font-weight="bold" font-size="27.527px" y="1167.0645" x="442.4762" font-family="PT Sans Caption" fill="#ffffff">N</tspan>
    </text>
    <text id="text612" font-size="15px" transform="matrix(.62101 -.78380 .78380 .62101 0 0)" y="1231.8972" x="243.50467">
     <tspan id="tspan614" font-weight="bold" font-size="27.527px" y="1231.8972" x="243.50467" font-family="PT Sans Caption" fill="#ffffff">C</tspan>
    </text>
    <text id="text616" font-size="15px" transform="matrix(.48622 -.87383 .87383 .48622 0 0)" y="1257.8693" x="59.762321">
     <tspan id="tspan618" font-weight="bold" font-size="27.527px" y="1257.8693" x="59.762321" font-family="PT Sans Caption" fill="#ffffff">E</tspan>
    </text>
    <g id="g620" transform="matrix(1.25 0 0 -1.25 412.77 873.74)">
     <g id="g622" clip-path="url(#clipPath624)">
      <g id="g628" transform="translate(559.56 308.08)">
       <path id="path630" d="m0 0c4.172-34.436-20.363-65.73-54.795-69.9-34.436-4.17-65.731 20.362-69.902 54.795-4.17 34.436 20.362 65.731 54.798 69.903 34.436 4.17 65.732-20.363 69.902-54.798" fill="#fff"/>
      </g>
      <g id="g632" transform="translate(494.8 237.94)">
       <path id="path634" d="m0 0c6.116 8.637 4.07 20.6-4.568 26.719-8.64 6.117-20.603 4.073-26.722-4.569l-0.027-0.016c-4.313-5.693-12.429-6.809-18.121-2.495-5.692 4.316-6.808 12.429-2.492 18.121l-0.002 0.024c10.169 14.362 30.056 17.761 44.416 7.591 14.362-10.168 17.762-30.054 7.594-44.414l-0.078-0.961z" fill="#992e4f"/>
      </g>
      <g id="g636" transform="translate(494.85 239.19)">
       <path id="path638" d="m0 0c3.392 4.79 2.259 11.42-2.531 14.813-4.789 3.389-11.421 2.256-14.811-2.533l-0.016-0.01c-2.392-3.155-6.89-3.774-10.046-1.382-3.154 2.391-3.772 6.889-1.381 10.045v0.011c5.637 7.962 16.659 9.849 24.62 4.211 7.96-5.637 9.845-16.66 4.209-24.622l-0.044-0.533z" fill="#992e4f"/>
      </g>
      <g id="g640" transform="translate(492.47 254.01)">
       <path id="path642" d="m0 0h0.084c9.916 20.367 3.926 45.502-15.167 59.021-21.234 15.035-50.637 10.01-65.673-11.226l0.003-0.033c-6.381-8.418-4.731-20.413 3.686-26.795 8.417-6.379 20.413-4.729 26.792 3.687l0.043 0.028c9.044 12.773 26.733 15.797 39.508 6.753 10.24-7.253 14.214-20.058 10.724-31.435" fill="#992e4f"/>
      </g>
      <g id="g644" transform="translate(518.37 324.83)">
       <path id="path646" d="m0 0-0.365 1.376c-1.057-1.958-2.023-3.612-2.723-4.774v-4.687c0-1.369 4.963 3.003 4.193 3.692-0.767 0.685-1.727 1.375-1.727 1.375s2.611 0.161 1.882 1.058c-0.73 0.9-1.26 1.96-1.26 1.96" fill="#992e4f"/>
      </g>
      <g id="g648" transform="translate(505.71 357.72)">
       <path id="path650" d="m0 0 0.536 2.375s1.8 4.229 4.278 7.824c2.477 3.595-6.388 4.229-6.388 4.229s3.259 2.748 5.864 5.498c2.607 2.75-14.237 20.218-14.237 14.754v-41.439c0.364 5.303 3.653 6.855 9.947 6.759" fill="#992e4f"/>
      </g>
      <g id="g652" transform="translate(518.12 239.35)">
       <path id="path654" d="m0 0c-1.792 1.023-4.096 0.861-6.276 0.229 0.167-0.063 0.331-0.138 0.49-0.229 2.571-1.469 4.189-3.558 4.945-5.111 0.914-0.791 2.02-1.674 2.847-2.097 1.688-0.86 2.473-0.276 3.252 0 0.781 0.279-0.816 4.669-5.258 7.208" fill="#992e4f"/>
      </g>
      <g id="g656" transform="translate(498.79 231.83)">
       <path id="path658" d="m0 0c0.952 1.178 8.567 9.743 13.008 7.205 4.44-2.536 6.039-6.927 5.26-7.205-0.779-0.279-1.565-0.861-3.255 0-1.688 0.859-4.544 3.645-4.544 3.645l-6.889-3.645h-3.58z" fill="#992e4f"/>
      </g>
      <g id="g660" transform="translate(513.39 317.07)">
       <path id="path662" d="m0 0c0.171 1.119 0.819 3.126 1.523 5.102 2.975 4.799 17.264 28.957 6.587 33.68l0.006 0.003-0.019 0.003c-0.726 0.321-26.653 4.704-26.653 4.704l0.029-9.49c-0.036-0.631-0.036-1.306 0.006-2.042v-0.014-23.253-93.937c10.27 9.052 37.881 50.128 37.881 62.721 0 20.798-20.648 14.146-19.36 22.519" fill="#be8d5e"/>
      </g>
      <g id="g664" transform="translate(524.46 338.73)">
       <path id="path666" d="m0 0c-0.836-2.231-1.821-4.449-2.824-6.515l8.502 0.839-5.678 5.676z" fill="#be8d5e"/>
      </g>
      <g id="g668" transform="translate(520.76 342.65)">
       <path id="path670" d="m0 0c0-3.519-2.853-6.37-6.37-6.37s-6.369 2.851-6.369 6.37c0 3.515 2.852 6.367 6.369 6.367s6.37-2.852 6.37-6.367" fill="#fff"/>
      </g>
      <g id="g672" transform="translate(519.88 340.78)">
       <path id="path674" d="m0 0c0-0.515-0.416-0.935-0.93-0.935-0.517 0-0.933 0.42-0.933 0.935 0 0.517 0.416 0.933 0.933 0.933 0.514 0 0.93-0.416 0.93-0.933" fill="#be8d5e"/>
      </g>
      <g id="g676" transform="translate(519.72 340.29)">
       <path id="path678" d="m0 0c0-0.123-0.1-0.222-0.224-0.222-0.121 0-0.221 0.099-0.221 0.222s0.1 0.223 0.221 0.223c0.124 0 0.224-0.1 0.224-0.223" fill="#be8d5e"/>
      </g>
      <g id="g680" transform="translate(520.82 331.35)">
       <path id="path682" d="m0 0c-0.523-1.061-1.046-2.07-1.552-3.016l10.327 3.886-8.775-0.87z" fill="#be8d5e"/>
      </g>
      <g id="g684" transform="translate(518.18 356.58)">
       <path id="path686" d="m0 0c0.084-0.011 0.167-0.026 0.247-0.037 0.817 0.913 2.083 2.282 2.723 2.723 0.986 0.681 2.271-1.248 2.271-1.248s-0.852 2.549-2.271 2.549c-0.985 0-3.231-2.341-4.522-3.783 0.509-0.068 1.025-0.137 1.552-0.204" fill="#be8d5e"/>
      </g>
      <g id="g688" transform="translate(516.12 356.84)">
       <path id="path690" d="m0 0c0.329 0.844 0.881 2.24 1.783 4.499-1.338-2.18-2.98-3.753-3.553-4.268 0.576-0.075 1.168-0.151 1.77-0.231" fill="#be8d5e"/>
      </g>
     </g>
    </g>
   </g>
  </g>
 </g>
 <g transform="matrix(.92424 0 0 .92424 652 2)">
  <g id="layer1" xmlns:inkscape="http://www.inkscape.org/namespaces/inkscape" transform="translate(278.17 -470.08)">
   <g id="g884" transform="matrix(.29780 0 0 -.29780 -984.58 675.8)">
    <g id="g886" clip-path="url(#clipPath888)">
     <g id="g892" transform="translate(2478.2 682.72)">
      <path id="path894" d="m0 0c-56.746 0-102.75-45.999-102.75-102.75 0-56.75 46.002-102.75 102.75-102.75s102.75 46 102.75 102.75c0 56.751-46.002 102.75-102.75 102.75" fill="#4176a4"/>
     </g>
     <g id="g896" transform="translate(2490.3 606.01)">
      <path id="path898" d="m0 0c0.417-1.447 17.471-48.36 55.248-19.101 37.773 29.26 38.158 40.367 44.246 40.306-9.365 1.621-50.705 16.109-66.986 15.483-16.279-0.635-24.311-4.498-31.186-16.532-4.353-7.608-2.498-16.061-1.322-20.156" fill="#fff"/>
     </g>
     <g id="g900" transform="translate(2490.3 606.01)">
      <path id="path902" d="m0 0c0.417-1.447 17.471-48.36 55.248-19.101 37.773 29.26 38.158 40.367 44.246 40.306-9.365 1.621-50.705 16.109-66.986 15.483-16.279-0.635-24.311-4.498-31.186-16.532-4.353-7.608-2.498-16.061-1.322-20.156z" stroke="#4176a4" stroke-miterlimit="10" fill="none"/>
     </g>
     <g id="g904" transform="translate(2484 596.96)">
      <path id="path906" d="m0 0c1.174 1.927 2.693 3.497 4.199 4.883 1.525 1.391 3.121 2.623 4.75 3.784 3.261 2.311 6.655 4.324 10.121 6.177 3.47 1.846 7.013 3.529 10.642 5.028 1.815 0.748 3.653 1.447 5.529 2.073 1.874 0.634 3.829 1.148 5.731 1.557 7.647 1.621 15.301 2.723 22.978 3.785 3.837 0.519 7.679 1.001 11.526 1.435 3.847 0.409 7.697 0.873 11.567 0.988-3.854-0.322-7.666-0.992-11.48-1.607-3.813-0.64-7.617-1.328-11.413-2.049-7.578-1.468-15.181-2.989-22.577-4.979-1.854-0.507-3.619-1.074-5.375-1.774-1.76-0.695-3.5-1.466-5.219-2.285-3.438-1.642-6.798-3.466-10.056-5.433-3.254-1.971-6.416-4.09-9.347-6.414-1.461-1.164-2.867-2.381-4.132-3.668-1.264-1.298-2.385-2.615-3.141-4.05l-4.303 2.549z" fill="#4176a4"/>
     </g>
     <g id="g908" transform="translate(2491.2 582.82)">
      <path id="path910" d="m0 0s-0.347 55.378-45.205 53.581c-23.643-0.945-59.346 1.633-59.346 1.633s-0.35-6.616 13.789-31.628c13.756-24.333 73.049-39.692 81.116-34.593 8.069 5.096 10.815 0.867 9.645 11.007" fill="#fff"/>
     </g>
     <g id="g912" transform="translate(2491.2 582.82)">
      <path id="path914" d="m0 0s-0.347 55.378-45.205 53.581c-23.643-0.945-59.346 1.633-59.346 1.633s-0.35-6.616 13.789-31.628c13.756-24.333 73.049-39.692 81.116-34.593 8.069 5.096 10.815 0.867 9.645 11.007z" stroke="#4176a4" stroke-miterlimit="10" fill="none"/>
     </g>
     <g id="g916" transform="translate(2493.8 567.59)">
      <path id="path918" d="m0 0c-1.23 0.739-2.147 1.545-3.043 2.323-0.889 0.786-1.727 1.579-2.553 2.374-1.648 1.591-3.246 3.191-4.845 4.782-3.196 3.184-6.391 6.336-9.659 9.413-6.527 6.155-13.33 12.014-20.517 17.384-7.185 5.37-14.75 10.253-22.712 14.43-7.959 4.177-16.32 7.641-24.993 10.153 8.779-2.109 17.337-5.196 25.548-9.033 8.214-3.837 16.087-8.417 23.606-13.513 7.522-5.096 14.689-10.714 21.576-16.632 3.446-2.957 6.821-5.993 10.164-9.032 1.672-1.515 3.337-3.035 5.006-4.503 0.835-0.732 1.672-1.452 2.505-2.124 0.833-0.667 1.67-1.302 2.401-1.682l-2.484-4.34z" fill="#4176a4"/>
     </g>
     <g id="g920" transform="translate(2482.5 555.03)">
      <path id="path922" d="m0 0c0.65-0.843 19.849-30.152-18.25-39.341-38.096-9.183-45.035-4.753-48.279-8.229 8.556 34.885 14.758 39.245 23.923 48.22 9.169 8.97 16.291 12.584 27.285 11.447 6.955-0.716 13.47-9.721 15.321-12.097" fill="#fff"/>
     </g>
     <g id="g924" transform="translate(2482.5 555.03)">
      <path id="path926" d="m0 0c0.65-0.843 19.849-30.152-18.25-39.341-38.096-9.183-45.035-4.753-48.279-8.229 8.556 34.885 14.758 39.245 23.923 48.22 9.169 8.97 16.291 12.584 27.285 11.447 6.955-0.716 13.47-9.721 15.321-12.097z" stroke="#4176a4" stroke-miterlimit="10" fill="none"/>
     </g>
     <g id="g928" transform="translate(2490.8 550.59)">
      <path id="path930" d="m0 0c-1.323 0.187-2.79 0.154-4.298 0.062-1.505-0.098-3.035-0.273-4.567-0.49-3.067-0.437-6.142-1.04-9.195-1.742-3.051-0.707-6.087-1.515-9.075-2.451-2.974-0.944-5.953-1.985-8.654-3.358-2.628-1.395-5.122-3.41-7.557-5.388-2.432-2.009-4.808-4.109-7.155-6.241-4.7-4.262-9.253-8.7-13.848-13.093 4.295 4.683 8.549 9.411 12.977 13.989 2.212 2.292 4.457 4.556 6.786 6.752 2.357 2.175 4.688 4.365 7.569 6.158 2.866 1.699 5.842 2.949 8.848 4.129 3.009 1.165 6.06 2.195 9.146 3.127 3.087 0.926 6.208 1.755 9.398 2.426 1.596 0.334 3.209 0.629 4.865 0.847 1.651 0.208 3.373 0.377 5.215 0.252l-0.455-4.979z" fill="#4176a4"/>
     </g>
    </g>
   </g>
  </g>
 </g>
 <g transform="matrix(.92424 0 0 .92424 717 2)">
  <g id="layer1" xmlns:inkscape="http://www.inkscape.org/namespaces/inkscape" transform="translate(-285.7 -637.81)" xmlns:sodipodi="http://sodipodi.sourceforge.net/DTD/sodipodi-0.dtd">
   <path id="path4898" d="m42.931 24.331a30.557 30.557 0 1 1 -61.114 0 30.557 30.557 0 1 1 61.114 0z" transform="translate(305.9 645.89)" fill="#fff"/>
   <path id="path5772" d="m340.46 665.35c-0.00001 0.41638-0.0641 0.83274-0.19217 1.2491-0.11211 0.40036-0.29627 0.77669-0.55248 1.129-0.25624 0.35232-0.59253 0.65658-1.0089 0.9128-0.41638 0.25623-0.92082 0.44039-1.5133 0.55248v0.14412c0.52845 0.048 1.0249 0.16816 1.4893 0.36032 0.46439 0.19217 0.86474 0.46441 1.201 0.81671 0.35229 0.3363 0.62453 0.75267 0.81671 1.2491 0.20817 0.48043 0.31226 1.0489 0.31227 1.7055-0.00001 0.88077-0.20819 1.6334-0.62454 2.258-0.40037 0.62455-0.92883 1.137-1.5854 1.5373-0.65658 0.40035-1.4092 0.69661-2.258 0.88878-0.84875 0.19217-1.7135 0.28825-2.5943 0.28825h-1.153c-0.46441 0-0.96885-0.016-1.5133-0.048-0.52847-0.016-1.0729-0.048-1.6334-0.0961-0.54448-0.048-1.0409-0.12011-1.4893-0.21619v-16.574c0.33629-0.048 0.71262-0.0961 1.129-0.14413 0.43237-0.048 0.88877-0.0881 1.3692-0.1201 0.49643-0.032 1.0009-0.056 1.5133-0.0721 0.51245-0.016 1.0249-0.024 1.5374-0.024 0.83272 0.00002 1.6494 0.0641 2.4501 0.19217 0.80068 0.11211 1.5213 0.3283 2.1619 0.64857 0.64055 0.30428 1.153 0.72865 1.5374 1.2731 0.40033 0.54449 0.60051 1.2411 0.60052 2.0898m-6.5577 10.209c0.44839 0 0.87276-0.04 1.2731-0.12011 0.41635-0.0801 0.77666-0.20818 1.0809-0.38433 0.32027-0.19217 0.56849-0.42437 0.74465-0.69661 0.19216-0.28825 0.28824-0.64056 0.28825-1.0569-0.00001-0.51244-0.11211-0.92079-0.33629-1.2251-0.22421-0.30425-0.52047-0.52845-0.88878-0.67258-0.35232-0.16014-0.75266-0.25622-1.201-0.28825-0.43238-0.048-0.87277-0.0721-1.3212-0.0721h-1.9697v4.3718c0.0961 0.032 0.2322 0.0561 0.40836 0.0721 0.19216 0.016 0.40034 0.032 0.62454 0.048 0.22419 0.00001 0.44839 0.008 0.67259 0.024h0.62454m-1.129-7.1582c0.2402 0.00001 0.52045 0.00001 0.84073 0 0.33629-0.016 0.61653-0.04 0.84074-0.0721 0.67258-0.20817 1.2411-0.48841 1.7055-0.84073 0.46439-0.36831 0.69659-0.86474 0.6966-1.4893-0.00001-0.41635-0.0881-0.75265-0.26423-1.0089-0.17616-0.25621-0.41637-0.45639-0.72063-0.60053-0.28826-0.14411-0.61654-0.24019-0.98486-0.28825-0.36833-0.048-0.74465-0.072-1.129-0.0721-0.46441 0.00001-0.88878 0.008-1.2731 0.024-0.38434 0.016-0.68861 0.04-0.9128 0.0721v4.2757h1.201" fill="#4176a4"/>
   <path id="path5770" d="m321.77 661.39h3.3629v10.785c-0.00002 1.089-0.16016 2.0338-0.48042 2.8345-0.30428 0.8007-0.74467 1.4573-1.3212 1.9697-0.5605 0.51245-1.2411 0.89679-2.0418 1.153-0.78469 0.24021-1.6494 0.36031-2.5943 0.36031-2.258 0-3.9795-0.48842-5.1645-1.4653-1.185-0.99286-1.7776-2.4742-1.7776-4.4439v-11.194h3.5551v10.545c-0.00001 1.2811 0.28024 2.1779 0.84073 2.6904 0.56049 0.49643 1.3932 0.74465 2.4982 0.74465 1.0569 0 1.8416-0.26423 2.354-0.79269 0.51244-0.54448 0.76866-1.4252 0.76867-2.6423v-10.545" fill="#4176a4"/>
   <g id="g828" transform="matrix(.32821 0 0 -.32821 -109.48 769.44)">
    <g id="g830" clip-path="url(#clipPath832)">
     <g id="g836" transform="translate(1304.6 224)">
      <path id="path838" d="m0 0c-42.27 0-76.536 34.268-76.536 76.537 0 42.271 34.266 76.537 76.536 76.537 42.271 0 76.54-34.266 76.54-76.537 0-42.265-34.269-76.533-76.54-76.533m0 174.04c-53.845 0-97.496-43.649-97.496-97.498 0-53.846 43.651-97.498 97.496-97.498 53.848 0 97.5 43.652 97.5 97.498 0 44.763-43.65 97.498-97.5 97.498" fill="#992e4f"/>
     </g>
     <g id="g840" transform="translate(1247.6 229.68)">
      <path id="path842" d="m0 0-13.878 13.876 127.83 127.82 13.87-13.88-127.82-127.82z" fill="#992e4f"/>
     </g>
    </g>
   </g>
   <path id="path5768" d="m296.96 661.56c0.72063-0.1281 1.5213-0.22418 2.4021-0.28825 0.88077-0.0801 1.7615-0.12009 2.6423-0.12011 0.89677 0.00002 1.8016 0.0721 2.7144 0.21619 0.91279 0.12813 1.7295 0.40037 2.4501 0.81671 0.73663 0.40037 1.3372 0.96886 1.8016 1.7055 0.46439 0.72065 0.69659 1.6815 0.69661 2.8825-0.00002 1.0569-0.20019 1.9617-0.60053 2.7144-0.40036 0.73665-0.93683 1.3372-1.6094 1.8016-0.65658 0.46441-1.4092 0.80871-2.258 1.0329-0.84875 0.20819-1.7215 0.31228-2.6183 0.31228h-0.40835-0.62455c-0.20819-0.016-0.40836-0.032-0.60052-0.048-0.19218-0.016-0.3363-0.032-0.43238-0.048v5.669h-3.5551v-16.647m5.2846 2.7144c-0.3363 0.00001-0.66459 0.008-0.98486 0.024-0.30427 0.016-0.55249 0.048-0.74465 0.0961v4.9964c0.064 0.016 0.16814 0.032 0.31227 0.048 0.14412 0.016 0.29625 0.032 0.4564 0.048 0.16013 0.00001 0.30426 0.008 0.43238 0.024 0.14412 0.00001 0.25621 0.00001 0.33629 0 0.4644 0.00001 0.9288-0.032 1.3932-0.0961 0.46439-0.0641 0.87275-0.20017 1.2251-0.40836 0.36831-0.20817 0.66457-0.48842 0.88877-0.84073 0.22419-0.36832 0.33629-0.85674 0.3363-1.4653-0.00001-0.51244-0.1041-0.9208-0.31228-1.2251-0.20819-0.32027-0.48843-0.56849-0.84073-0.74465-0.3363-0.17614-0.72865-0.29625-1.177-0.36032-0.43238-0.064-0.87277-0.0961-1.3212-0.0961" fill="#4176a4"/>
  </g>
 </g>
</svg>
